{"title":"Handmade - s01e03 - Wood x264 [AClass].mp4","uid":11889941,"size":527333247,"categoryP":"video","categoryS":"hd___tv_shows","magnet":"?xt=urn:btih:518006fc70554c427330a9c657670a98c94e5db1&amp;dn=Handmade+-+s01e03+-+Wood+x264+%5BAClass%5D.mp4&amp;tr=udp%3A%2F%2Ftracker.openbittorrent.com%3A80&amp;tr=udp%3A%2F%2Fopen.demonii.com%3A1337&amp;tr=udp%3A%2F%2Ftracker.coppersurfer.tk%3A6969&amp;tr=udp%3A%2F%2Fexodus.desync.com%3A6969","seeders":2,"leechers":0,"uploader":"akula941","files":1,"time":1430954586,"description":"Filmed over five days, this film reveals the complex, time-consuming processes involved in creating a Windsor chair, made by Jim Steele in his Warwickshire workshop.b]\n\n\nFormat : MPEG-4\nFormat profile : Base Media\nCodec ID : isom\nFile size : 503 MiB\nDuration : 29mn 17s\nOverall bit rate mode : Variable\nOverall bit rate : 2 401 Kbps\nWriting application : Lavf56.15.102\n\nVideo\nID : 1\nFormat : AVC\nFormat/Info : Advanced Video Codec\nFormat profile : &lt;a class=&quot;__cf_email__&quot; href=&quot;/cdn-cgi/l/email-protection&quot; data-cfemail=&quot;f2ba9b959ab2bec6dcc3&quot;&gt;[email&amp;#160;protected]&lt;/a&gt;&lt;script cf-hash='f9e31' type=&quot;text/javascript&quot;&gt;\n/* &lt;![CDATA[ */!function(){try{var t=&quot;currentScript&quot;in document?document.currentScript:function(){for(var t=document.getElementsByTagName(&quot;script&quot;),e=t.length;e--;)if(t[e].getAttribute(&quot;cf-hash&quot;))return t[e]}();if(t&amp;&amp;t.previousSibling){var e,r,n,i,c=t.previousSibling,a=c.getAttribute(&quot;data-cfemail&quot;);if(a){for(e=&quot;&quot;,r=parseInt(a.substr(0,2),16),n=2;a.length-n;n+=2)i=parseInt(a.substr(n,2),16)^r,e+=String.fromCharCode(i);e=document.createTextNode(e),c.parentNode.replaceChild(e,c)}}}catch(u){}}();/* ]]&gt; */&lt;/script&gt;\nFormat settings, CABAC : Yes\nFormat settings, ReFrames : 2 frames\nCodec ID : avc1\nCodec ID/Info : Advanced Video Coding\nDuration : 29mn 17s\nBit rate mode : Variable\nBit rate : 2302 Kbps\nMaximum bit rate : 3500 Kbps\nWidth : 1280 pixels\nHeight : 720 pixels\nDisplay aspect ratio : 16:9\nFrame rate mode : Constant\nFrame rate : 25.000 fps\nColor space : YUV\nChroma subsampling : 4:2:0\nBit depth : 8 bits\nScan type : Progressive\nBits/(Pixel*Frame) : 0.100\nStream size : 482 MiB (96%)\n\nAudio\nID : 2\nFormat : AAC\nFormat/Info : Advanced Audio Codec\nFormat profile : LC\nCodec ID : 40\nDuration : 29mn 17s\nBit rate mode : Constant\nBit rate : 93.5 Kbps\nChannel(s) : 2 channels\nChannel positions : Front: L R\nSampling rate : 48.0 KHz\nCompression mode : Lossy\nStream size : 19.6 MiB (4%)","torrent":{"xt":"urn:btih:518006fc70554c427330a9c657670a98c94e5db1","amp;dn":"Handmade+-+s01e03+-+Wood+x264+%5BAClass%5D.mp4","amp;tr":["udp%3A%2F%2Ftracker.openbittorrent.com%3A80","udp%3A%2F%2Fopen.demonii.com%3A1337","udp%3A%2F%2Ftracker.coppersurfer.tk%3A6969","udp%3A%2F%2Fexodus.desync.com%3A6969"],"infoHash":"518006fc70554c427330a9c657670a98c94e5db1","infoHashBuffer":{"type":"Buffer","data":[81,128,6,252,112,85,76,66,115,48,169,198,87,103,10,152,201,78,93,177]},"announce":[],"urlList":[]}}